<svg width="291" height="325" viewBox="0 0 291 325" fill="none" xmlns="http://www.w3.org/2000/svg">
<path d="M215 161.003H50.0001V224.03C50.0001 232.867 57.1635 240.03 66.0001 240.03H199C207.837 240.03 215 232.867 215 224.03V161.003Z" fill="white"/>
<ellipse cx="82.5" cy="79.0274" rx="82.5" ry="79.0274" transform="matrix(-1 0 0 1 215.336 81.5751)" fill="white"/>
<path d="M194.066 109.44C189.534 105.733 182.696 107.928 181.236 113.558L159.744 196.418C158.162 202.518 163.987 207.988 170.007 206.056L258.191 177.748C264.212 175.816 265.669 168.008 260.759 163.992L194.066 109.44Z" fill="white"/>
<ellipse cx="37.5" cy="37.0441" rx="37.5" ry="37.0441" transform="matrix(-1 0 0 1 170.336 124.052)" fill="black"/>
</svg>
